<?xml version="1.0" encoding="iso-8859-1"?>
<!-- Generator: Adobe Illustrator 19.0.0, SVG Export Plug-In . SVG Version: 6.00 Build 0)  -->
<svg version="1.1" id="Capa_1" xmlns="http://www.w3.org/2000/svg" xmlns:xlink="http://www.w3.org/1999/xlink" x="0px" y="0px"
	 viewBox="0 0 512 512" style="enable-background:new 0 0 512 512;" xml:space="preserve">
<g>
	<path style="fill:#A24F3D;" d="M287,60c-43.43,0-260.717,0-257,0v30c4.955,0,112.649,0,107,0c8.538,0,367.965,0,345,0V60
		C478.842,60,279.444,60,287,60z"/>
	<path style="fill:#A24F3D;" d="M347,422c-3.02,0-329.828,0-317,0v30c156.767,0,283.947,0,452,0v-30
		C477.444,422,340.853,422,347,422z"/>
	<path style="fill:#A24F3D;" d="M30,301v30c3.77,0,264.389,0,257,0c5.14,0,201.755,0,195,0v-30C477.044,301,16.956,301,30,301z"/>
	<path style="fill:#A24F3D;" d="M30,181v30c3.081,0,170.081,0,167,0c7.746,0,198.081,0,195,0h90v-30C474.081,181,26.123,181,30,181z
		"/>
</g>
<g>
	<path style="fill:#FEDB41;" d="M137,361c-24.814,0-45-20.186-45-45s20.186-45,45-45s45,20.186,45,45S161.814,361,137,361z"/>
	<path style="fill:#FEDB41;" d="M227,361c-24.814,0-45-20.186-45-45s20.186-45,45-45s45,20.186,45,45S251.814,361,227,361z"/>
	<path style="fill:#FEDB41;" d="M317,361c-24.814,0-45-20.186-45-45s20.186-45,45-45s45,20.186,45,45S341.814,361,317,361z"/>
</g>
<g>
	<path style="fill:#32D736;" d="M197,482c-24.814,0-45-20.186-45-45s20.186-45,45-45s45,20.186,45,45S221.814,482,197,482z"/>
	<path style="fill:#32D736;" d="M287,482c-24.814,0-45-20.186-45-45s20.186-45,45-45s45,20.186,45,45S311.814,482,287,482z"/>
	<path style="fill:#32D736;" d="M377,482c-24.814,0-45-20.186-45-45s20.186-45,45-45s45,20.186,45,45S401.814,482,377,482z"/>
</g>
<g>
	<path style="fill:#FD3C65;" d="M227,241c-24.814,0-45-20.186-45-45s20.186-45,45-45s45,20.186,45,45S251.814,241,227,241z"/>
	<path style="fill:#FD3C65;" d="M317,241c-24.814,0-45-20.186-45-45s20.186-45,45-45s45,20.186,45,45S341.814,241,317,241z"/>
	<path style="fill:#FD3C65;" d="M407,241c-24.814,0-45-20.186-45-45s20.186-45,45-45s45,20.186,45,45S431.814,241,407,241z"/>
</g>
<g>
	<path style="fill:#17ACE8;" d="M137,120c-24.814,0-45-20.186-45-45s20.186-45,45-45s45,20.186,45,45S161.814,120,137,120z"/>
	<path style="fill:#17ACE8;" d="M227,120c-24.814,0-45-20.186-45-45s20.186-45,45-45s45,20.186,45,45S251.814,120,227,120z"/>
	<path style="fill:#17ACE8;" d="M317,120c-24.814,0-45-20.186-45-45s20.186-45,45-45s45,20.186,45,45S341.814,120,317,120z"/>
</g>
<g>
	<path style="fill:#B35C4B;" d="M30,512L30,512c-16.569,0-30-13.431-30-30V30C0,13.431,13.431,0,30,0l0,0c16.569,0,30,13.431,30,30
		v452C60,498.569,46.569,512,30,512z"/>
	<path style="fill:#B35C4B;" d="M482,512L482,512c-16.569,0-30-13.431-30-30V30c0-16.569,13.431-30,30-30l0,0
		c16.569,0,30,13.431,30,30v452C512,498.569,498.569,512,482,512z"/>
</g>
<g>
	<path style="fill:#1689FC;" d="M137,30v90c24.814,0,45-20.186,45-45S161.814,30,137,30z"/>
	<path style="fill:#1689FC;" d="M227,30v90c24.814,0,45-20.186,45-45S251.814,30,227,30z"/>
	<path style="fill:#1689FC;" d="M317,30v90c24.814,0,45-20.186,45-45S341.814,30,317,30z"/>
</g>
<g>
	<path style="fill:#E50027;" d="M317,151v90c24.814,0,45-20.186,45-45S341.814,151,317,151z"/>
	<path style="fill:#E50027;" d="M407,151v90c24.814,0,45-20.186,45-45S431.814,151,407,151z"/>
	<path style="fill:#E50027;" d="M227,151v90c24.814,0,45-20.186,45-45S251.814,151,227,151z"/>
</g>
<g>
	<path style="fill:#FEA832;" d="M227,271v90c24.814,0,45-20.186,45-45S251.814,271,227,271z"/>
	<path style="fill:#FEA832;" d="M317,271v90c24.814,0,45-20.186,45-45S341.814,271,317,271z"/>
	<path style="fill:#FEA832;" d="M137,271v90c24.814,0,45-20.186,45-45S161.814,271,137,271z"/>
</g>
<g>
	<path style="fill:#10BB67;" d="M197,392v90c24.814,0,45-20.186,45-45S221.814,392,197,392z"/>
	<path style="fill:#10BB67;" d="M287,392v90c24.814,0,45-20.186,45-45S311.814,392,287,392z"/>
	<path style="fill:#10BB67;" d="M377,392v90c24.814,0,45-20.186,45-45S401.814,392,377,392z"/>
</g>
<g>
	<path style="fill:#A24F3D;" d="M60,482V30C60,13.431,46.569,0,30,0v512C46.569,512,60,498.567,60,482z"/>
	<path style="fill:#A24F3D;" d="M512,482V30c0-16.569-13.431-30-30-30v512C498.569,512,512,498.567,512,482z"/>
</g>
<g>
</g>
<g>
</g>
<g>
</g>
<g>
</g>
<g>
</g>
<g>
</g>
<g>
</g>
<g>
</g>
<g>
</g>
<g>
</g>
<g>
</g>
<g>
</g>
<g>
</g>
<g>
</g>
<g>
</g>
</svg>
