<svg id="Layer_1" height="512" viewBox="0 0 512 512" width="512" xmlns="http://www.w3.org/2000/svg" data-name="Layer 1"><path d="m119.805 212.3a6.006 6.006 0 0 0 5.539 3.7h106.432a5.99 5.99 0 0 0 5.626-3.9l7.675-20.686a6 6 0 0 0 .355-2.566l-8.4-104.172a6.139 6.139 0 0 0 -5.979-5.676h-23.053v-3.631c0-16.06-13.439-29.127-29.5-29.127s-29.5 13.067-29.5 29.127v3.631h-22.932a6.141 6.141 0 0 0 -5.976 5.623l-9.332 104.094a6.168 6.168 0 0 0 .436 2.881zm107.795-8.3h-98.253l-3.617-9h105.1zm-66.6-128.631c0-9.444 8.056-17.127 17.5-17.127s17.5 7.683 17.5 17.127v3.631h-35zm-29.446 15.631h17.446v21.207a6 6 0 0 0 12 0v-21.207h35v21.207a6 6 0 0 0 12 0v-21.207h17.518l7.429 92h-109.647z"/><path d="m206 137h-55a6 6 0 0 0 -6 6v19a6 6 0 0 0 6 6h55a6 6 0 0 0 6-6v-19a6 6 0 0 0 -6-6zm-6 19h-43v-7h43z"/><path d="m275.261 430h-62.938a6 6 0 1 0 0 12h62.938a6 6 0 0 0 0-12z"/><path d="m275.261 405h-62.938a6 6 0 1 0 0 12h62.938a6 6 0 0 0 0-12z"/><path d="m212.323 283h2.324a6 6 0 0 0 0-12h-2.324a6 6 0 1 0 0 12z"/><path d="m231.84 277a6 6 0 0 0 6 6h17.56a6 6 0 0 0 0-12h-17.56a6 6 0 0 0 -6 6z"/><path d="m278.968 283h125.875a6 6 0 1 0 0-12h-125.875a6 6 0 0 0 0 12z"/><path d="m212.323 332h2.324a6 6 0 0 0 0-12h-2.324a6 6 0 1 0 0 12z"/><path d="m255.4 332a6 6 0 0 0 0-12h-17.56a6 6 0 0 0 0 12z"/><path d="m278.968 332h125.875a6 6 0 1 0 0-12h-125.875a6 6 0 0 0 0 12z"/><path d="m295.84 223h17.56a6 6 0 0 0 0-12h-17.56a6 6 0 1 0 0 12z"/><path d="m404.864 211h-67.9a6 6 0 0 0 0 12h67.9a6 6 0 1 0 0-12z"/><path d="m390.077 157.008a8.777 8.777 0 0 1 -8.767-8.767 6.02 6.02 0 0 0 -12.039 0c0 9.365 6.729 17.294 14.729 19.875v3a6 6 0 0 0 12 0v-3a20.279 20.279 0 0 0 14.805-19.875 20.774 20.774 0 0 0 -20.747-20.766 8.764 8.764 0 0 1 -.092-17.528h.108s.072 0 .108 0a8.773 8.773 0 0 1 8.661 8.761 5.981 5.981 0 1 0 11.962 0 20.28 20.28 0 0 0 -14.805-19.875v-3.677a6 6 0 0 0 -12 0v3.677c-8 2.581-14.729 10.511-14.729 19.875a20.808 20.808 0 0 0 20.787 20.767 8.767 8.767 0 0 1 .019 17.533z"/><path d="m336.583 157.008a8.777 8.777 0 0 1 -8.767-8.767 6 6 0 0 0 -6-6 5.826 5.826 0 0 0 -5.791 6 20.429 20.429 0 0 0 14.975 19.875v3a6 6 0 0 0 12 0v-3a21.291 21.291 0 0 0 14.558-19.875 20.879 20.879 0 0 0 -20.87-20.766 8.765 8.765 0 0 1 -.185-17.528h.093s.064 0 .1 0a8.771 8.771 0 0 1 8.658 8.761 6 6 0 0 0 6 6 6.181 6.181 0 0 0 6.208-6 21.293 21.293 0 0 0 -14.562-19.875v-3.677a6 6 0 0 0 -12 0v3.677a20.429 20.429 0 0 0 -14.975 19.875 20.7 20.7 0 0 0 20.663 20.767 8.732 8.732 0 0 1 8.714 8.766 8.822 8.822 0 0 1 -8.819 8.767z"/><path d="m405 378h-99a6 6 0 0 0 -6 6v52a6 6 0 0 0 6 6h99a6 6 0 0 0 6-6v-52a6 6 0 0 0 -6-6zm-6 52h-87v-40h87z"/><path d="m206.323 385a6 6 0 0 0 6 6h62.938a6 6 0 0 0 0-12h-62.938a6 6 0 0 0 -6 6z"/><path d="m189 339.1a6 6 0 0 0 -6 6v6.3a6 6 0 1 0 12 0v-6.3a6 6 0 0 0 -6-6z"/><path d="m189 364.391a6 6 0 0 0 -6 6v65a6 6 0 1 0 12 0v-65a6 6 0 0 0 -6-6z"/><path d="m157 256.356v243.511a6.133 6.133 0 0 0 3.4 5.336 6.287 6.287 0 0 0 2.813.664 6.1 6.1 0 0 0 3.527-1.121l32.861-23.5 32.851 23.5a6 6 0 0 0 6.988 0l32.839-23.5 32.837 23.5a6 6 0 0 0 6.985 0l32.836-23.5 32.835 23.5a6 6 0 0 0 6.984 0l32.831-23.5 32.83 23.5a6.069 6.069 0 0 0 9.583-4.879v-468.467a6.056 6.056 0 0 0 -9.562-4.879l-32.854 23.5-32.849-23.5a6 6 0 0 0 -6.986 0l-32.839 23.5-32.836-23.5a6 6 0 0 0 -6.984 0l-32.782 23.461c-22.528-25.63-54.889-42.623-89.98-43.782a126.135 126.135 0 0 0 -130.228 127.309c.66 61.443 45.877 112.824 104.9 122.847zm-92.893-125.956a114.136 114.136 0 0 1 112.378-112.256c63.277-.879 115.609 50.707 115.609 113.99a114 114 0 0 1 -51.994 95.617 6 6 0 0 0 6.634 10 125.98 125.98 0 0 0 57.326-108.606c-.6-25.544-9.59-49.727-24.231-69.784l28.754-20.579 32.835 23.5a6 6 0 0 0 6.983 0l32.838-23.5 32.843 23.5a6.074 6.074 0 0 0 7.03 0l26.888-19.211v445.122l-26.876-19.2a6.037 6.037 0 0 0 -7.008 0l-32.843 23.5-32.841-23.5a6 6 0 0 0 -6.987 0l-32.838 23.5-32.836-23.5a6 6 0 0 0 -6.984 0l-32.838 23.5-32.842-23.5a6.222 6.222 0 0 0 -7.124 0l-26.983 19.207v-230.4c1.868.134 3.746.233 5.635.284a126.106 126.106 0 0 0 33.336-3.532 6 6 0 0 0 3.8-8.753v-.007a6 6 0 0 0 -6.683-2.893 114.064 114.064 0 0 1 -30.976 3.163c-61.758-2.116-110.931-53.875-110.005-115.662z"/></svg>