<?xml version="1.0" encoding="iso-8859-1"?>
<!-- Generator: Adobe Illustrator 19.0.0, SVG Export Plug-In . SVG Version: 6.00 Build 0)  -->
<svg version="1.1" id="Capa_1" xmlns="http://www.w3.org/2000/svg" xmlns:xlink="http://www.w3.org/1999/xlink" x="0px" y="0px"
	 viewBox="0 0 512 512" style="enable-background:new 0 0 512 512;" xml:space="preserve">
<g>
	<circle style="fill:#FFD173;" cx="51.2" cy="187.733" r="17.067"/>
	<circle style="fill:#FFD173;" cx="153.6" cy="460.8" r="17.067"/>
	<circle style="fill:#FFD173;" cx="418.133" cy="486.4" r="17.067"/>
	<circle style="fill:#FFD173;" cx="486.4" cy="256" r="17.067"/>
	<circle style="fill:#FFD173;" cx="443.733" cy="68.267" r="17.067"/>
	<circle style="fill:#FFD173;" cx="119.467" cy="25.6" r="17.067"/>
	<circle style="fill:#FFD173;" cx="230.4" cy="76.8" r="17.067"/>
	<path style="fill:#FFD173;" d="M238.933,204.8h34.133c14.14,0,25.6,11.46,25.6,25.6c0,14.14-11.46,25.6-25.6,25.6H230.4v-51.2
		H238.933z"/>
	<path style="fill:#FFD173;" d="M273.067,256c14.14,0,25.6,11.46,25.6,25.6s-11.46,25.6-25.6,25.6H230.4V256H273.067z"/>
	<path style="fill:#FFD173;" d="M276.651,155.648c55.424,11.443,91.076,65.647,79.633,121.071
		c-8.269,40.064-39.578,71.364-79.633,79.633l-3.584-23.552v-25.6c14.14,0,25.6-11.46,25.6-25.6c0-14.14-11.46-25.6-25.6-25.6
		c14.14,0,25.6-11.46,25.6-25.6c0-14.14-11.46-25.6-25.6-25.6v-25.6L276.651,155.648z"/>
	<path style="fill:#FFD173;" d="M273.067,307.2v25.6l3.584,23.552c-55.424,11.255-109.474-24.55-120.73-79.974
		s24.55-109.474,79.974-120.73c13.449-2.731,27.307-2.731,40.755,0l-3.584,23.552v25.6H230.4v102.4H273.067z"/>
</g>
<g>
	<path style="fill:#D3D3D3;" d="M324.267,136.533H307.2V68.267c0-4.71,3.823-8.533,8.533-8.533h110.933V76.8h-102.4V136.533z"/>
	<rect x="221.867" y="93.867" style="fill:#D3D3D3;" width="17.067" height="34.133"/>
	<path style="fill:#D3D3D3;" d="M162.133,443.733h-17.067v-25.6H85.333c-4.71,0-8.533-3.823-8.533-8.533v-76.8
		c0-4.71,3.823-8.533,8.533-8.533h76.8v17.067H93.867v59.733H153.6c4.71,0,8.533,3.823,8.533,8.533V443.733z"/>
	<path style="fill:#D3D3D3;" d="M426.667,469.333H409.6V358.4h-73.958v-17.067h82.492c4.71,0,8.533,3.823,8.533,8.533V469.333z"/>
	<path style="fill:#D3D3D3;" d="M119.467,264.533H51.2c-4.71,0-8.533-3.823-8.533-8.533v-51.2h17.067v42.667h59.733V264.533z"/>
	<rect x="392.533" y="247.467" style="fill:#D3D3D3;" width="85.333" height="17.067"/>
	<path style="fill:#D3D3D3;" d="M512,170.667h-68.267c-4.71,0-8.533-3.823-8.533-8.533v-76.8h17.067V153.6H512V170.667z"/>
	<path style="fill:#D3D3D3;" d="M213.333,85.333h-93.867c-4.71,0-8.533-3.823-8.533-8.533V42.667H128v25.6h85.333V85.333z"/>
	<rect y="452.267" style="fill:#D3D3D3;" width="136.533" height="17.067"/>
	<path style="fill:#D3D3D3;" d="M59.733,170.667H42.667v-51.2H0V102.4h51.2c4.71,0,8.533,3.823,8.533,8.533V170.667z"/>
	<path style="fill:#D3D3D3;" d="M341.333,512h-17.067v-42.667H256c-4.71,0-8.533-3.823-8.533-8.533v-68.267h17.067v59.733H332.8
		c4.71,0,8.533,3.823,8.533,8.533V512z"/>
	<path style="fill:#D3D3D3;" d="M238.933,59.733h-17.067v-51.2c0-4.71,3.823-8.533,8.533-8.533H512v17.067H238.933V59.733z"/>
	<path style="fill:#D3D3D3;" d="M512,401.067h-25.6c-4.71,0-8.533-3.823-8.533-8.533V273.067h17.067V384H512V401.067z"/>
	<rect y="17.067" style="fill:#D3D3D3;" width="102.4" height="17.067"/>
	<rect y="375.467" style="fill:#D3D3D3;" width="85.333" height="17.067"/>
	<rect y="341.333" style="fill:#D3D3D3;" width="51.2" height="17.067"/>
	<rect x="401.067" y="110.933" style="fill:#D3D3D3;" width="17.067" height="25.6"/>
</g>
<g>
	<path style="fill:#FE7C26;" d="M273.067,264.533v-17.067c9.429,0,17.067-7.637,17.067-17.067c0-9.429-7.637-17.067-17.067-17.067
		h-34.133V256h-17.067v-51.2c0-4.71,3.823-8.533,8.533-8.533h42.667c18.85,0,34.133,15.283,34.133,34.133
		S291.917,264.533,273.067,264.533z"/>
	<path style="fill:#FE7C26;" d="M273.067,315.733H230.4c-4.71,0-8.533-3.823-8.533-8.533V256c0-4.71,3.823-8.533,8.533-8.533h42.667
		c18.85,0,34.133,15.283,34.133,34.133S291.917,315.733,273.067,315.733z M238.933,298.667h34.133
		c9.429,0,17.067-7.637,17.067-17.067c0-9.429-7.637-17.067-17.067-17.067h-34.133V298.667z"/>
	<rect x="230.4" y="179.2" style="fill:#FE7C26;" width="17.067" height="25.6"/>
	<rect x="230.4" y="307.2" style="fill:#FE7C26;" width="17.067" height="25.6"/>
	<rect x="264.533" y="179.2" style="fill:#FE7C26;" width="17.067" height="25.6"/>
	<rect x="264.533" y="307.2" style="fill:#FE7C26;" width="17.067" height="25.6"/>
	<rect x="213.333" y="196.267" style="fill:#FE7C26;" width="17.067" height="17.067"/>
	<rect x="213.333" y="298.667" style="fill:#FE7C26;" width="17.067" height="17.067"/>
	<path style="fill:#FE7C26;" d="M486.4,281.6c-14.14,0-25.6-11.46-25.6-25.6c0-14.14,11.46-25.6,25.6-25.6S512,241.86,512,256
		C512,270.14,500.54,281.6,486.4,281.6z M486.4,247.467c-4.71,0-8.533,3.823-8.533,8.533c0,4.71,3.823,8.533,8.533,8.533
		s8.533-3.823,8.533-8.533C494.933,251.29,491.11,247.467,486.4,247.467z"/>
	<path style="fill:#FE7C26;" d="M443.733,93.867c-14.14,0-25.6-11.46-25.6-25.6s11.46-25.6,25.6-25.6c14.14,0,25.6,11.46,25.6,25.6
		S457.873,93.867,443.733,93.867z M443.733,59.733c-4.71,0-8.533,3.823-8.533,8.533s3.823,8.533,8.533,8.533
		c4.71,0,8.533-3.823,8.533-8.533S448.444,59.733,443.733,59.733z"/>
	<path style="fill:#FE7C26;" d="M51.2,213.333c-14.14,0-25.6-11.46-25.6-25.6c0-14.14,11.46-25.6,25.6-25.6s25.6,11.46,25.6,25.6
		C76.8,201.873,65.34,213.333,51.2,213.333z M51.2,179.2c-4.71,0-8.533,3.823-8.533,8.533c0,4.71,3.823,8.533,8.533,8.533
		s8.533-3.823,8.533-8.533C59.733,183.023,55.91,179.2,51.2,179.2z"/>
	<path style="fill:#FE7C26;" d="M153.6,486.4c-14.14,0-25.6-11.46-25.6-25.6s11.46-25.6,25.6-25.6c14.14,0,25.6,11.46,25.6,25.6
		S167.74,486.4,153.6,486.4z M153.6,452.267c-4.71,0-8.533,3.823-8.533,8.533s3.823,8.533,8.533,8.533s8.533-3.823,8.533-8.533
		S158.31,452.267,153.6,452.267z"/>
	<path style="fill:#FE7C26;" d="M119.467,51.2c-14.14,0-25.6-11.46-25.6-25.6S105.327,0,119.467,0s25.6,11.46,25.6,25.6
		S133.606,51.2,119.467,51.2z M119.467,17.067c-4.71,0-8.533,3.823-8.533,8.533s3.823,8.533,8.533,8.533
		c4.71,0,8.533-3.823,8.533-8.533S124.177,17.067,119.467,17.067z"/>
	<path style="fill:#FE7C26;" d="M230.4,102.4c-14.14,0-25.6-11.46-25.6-25.6s11.46-25.6,25.6-25.6c14.14,0,25.6,11.46,25.6,25.6
		S244.54,102.4,230.4,102.4z M230.4,68.267c-4.71,0-8.533,3.823-8.533,8.533s3.823,8.533,8.533,8.533s8.533-3.823,8.533-8.533
		S235.11,68.267,230.4,68.267z"/>
	<path style="fill:#FE7C26;" d="M418.133,512c-14.14,0-25.6-11.46-25.6-25.6s11.46-25.6,25.6-25.6s25.6,11.46,25.6,25.6
		S432.273,512,418.133,512z M418.133,477.867c-4.71,0-8.533,3.823-8.533,8.533s3.823,8.533,8.533,8.533s8.533-3.823,8.533-8.533
		S422.844,477.867,418.133,477.867z"/>
</g>
<rect x="281.6" y="418.133" style="fill:#D3D3D3;" width="17.067" height="17.067"/>
<path style="fill:#FE7C26;" d="M230.4,121.941c8.431-1.647,17.007-2.483,25.6-2.475c20.71-0.034,41.148,4.702,59.733,13.824
	c67.797,32.998,96.017,114.714,63.019,182.511s-114.714,96.017-182.52,63.019s-96.009-114.714-63.01-182.511
	C152.073,157.577,188.092,130.014,230.4,121.941z M358.4,256c-0.162-56.388-46.012-101.965-102.4-101.803
	c-56.388,0.162-101.965,46.012-101.803,102.4s46.012,101.965,102.4,101.803c6.733-0.017,13.449-0.708,20.053-2.048
	C324.258,346.53,358.409,304.606,358.4,256z"/>
<g>
</g>
<g>
</g>
<g>
</g>
<g>
</g>
<g>
</g>
<g>
</g>
<g>
</g>
<g>
</g>
<g>
</g>
<g>
</g>
<g>
</g>
<g>
</g>
<g>
</g>
<g>
</g>
<g>
</g>
</svg>
