<svg height="512" viewBox="0 0 64 64" width="512" xmlns="http://www.w3.org/2000/svg" xmlns:xlink="http://www.w3.org/1999/xlink"><linearGradient id="New_Gradient_Swatch_1" gradientUnits="userSpaceOnUse" x1="16" x2="16" y1="-2" y2="68.853"><stop offset="0" stop-color="#fff33b"/><stop offset=".014" stop-color="#fee72e"/><stop offset=".042" stop-color="#fed51b"/><stop offset=".07" stop-color="#fdca10"/><stop offset=".1" stop-color="#fdc70c"/><stop offset=".4" stop-color="#f3903f"/><stop offset=".8" stop-color="#ed683c"/><stop offset="1" stop-color="#e93e3a"/></linearGradient><linearGradient id="New_Gradient_Swatch_1-2" x1="23" x2="23" xlink:href="#New_Gradient_Swatch_1" y1="-1.995" y2="68.859"/><linearGradient id="New_Gradient_Swatch_1-3" x1="47" x2="47" xlink:href="#New_Gradient_Swatch_1" y1="-1.995" y2="68.859"/><linearGradient id="New_Gradient_Swatch_1-4" x1="32" x2="32" xlink:href="#New_Gradient_Swatch_1" y1="-1.995" y2="68.859"/><linearGradient id="New_Gradient_Swatch_1-5" x1="16" x2="16" xlink:href="#New_Gradient_Swatch_1" y1="-1.995" y2="68.859"/><linearGradient id="New_Gradient_Swatch_1-6" x1="20.017" x2="20.017" xlink:href="#New_Gradient_Swatch_1" y1="-1.995" y2="68.859"/><g id="payment-document-protection-insurance-insured"><path d="m17 22v-1.184a2.993 2.993 0 0 0 -1-5.816 1 1 0 1 1 1-1h2a3 3 0 0 0 -2-2.816v-1.184h-2v1.184a2.993 2.993 0 0 0 1 5.816 1 1 0 1 1 -1 1h-2a3 3 0 0 0 2 2.816v1.184z" fill="url(#New_Gradient_Swatch_1)"/><path d="m15 56h16v2h-16z" fill="url(#New_Gradient_Swatch_1-2)"/><path d="m50.333 31.2a3.968 3.968 0 0 0 .667-2.2v-4a4 4 0 0 0 -8 0v4a3.968 3.968 0 0 0 .667 2.2 4.994 4.994 0 0 0 -3.667 4.8v4a1 1 0 0 0 1 1h12a1 1 0 0 0 1-1v-4a4.994 4.994 0 0 0 -3.667-4.8zm-5.333-2.2v-2.132l.437.292a4.992 4.992 0 0 0 2.774.84h.789v1a2 2 0 0 1 -4 0zm2-6a2 2 0 0 1 2 2v1h-.789a2.989 2.989 0 0 1 -1.664-.5l-1.479-.986a2 2 0 0 1 1.932-1.514zm5 16h-10v-3a3 3 0 0 1 3-3h4a3 3 0 0 1 3 3z" fill="url(#New_Gradient_Swatch_1-3)"/><path d="m48 17.05v-6.05a1.033 1.033 0 0 0 -.29-.71l-8-8a1.033 1.033 0 0 0 -.71-.29h-34a3.009 3.009 0 0 0 -3 3v54a3.009 3.009 0 0 0 3 3h40a3.009 3.009 0 0 0 3-3v-12.05a14.982 14.982 0 0 0 0-29.9zm-8-11.64 4.59 4.59h-3.59a1 1 0 0 1 -1-1zm6 53.59a1 1 0 0 1 -1 1h-40a1 1 0 0 1 -1-1v-54a1 1 0 0 1 1-1h33v5a3.009 3.009 0 0 0 3 3h5v5.05a14.982 14.982 0 0 0 0 29.9zm1-14a13 13 0 1 1 13-13 13.012 13.012 0 0 1 -13 13z" fill="url(#New_Gradient_Swatch_1-4)"/><path d="m16 6a10 10 0 1 0 10 10 10.016 10.016 0 0 0 -10-10zm0 18a8 8 0 1 1 8-8 8.011 8.011 0 0 1 -8 8z" fill="url(#New_Gradient_Swatch_1-5)"/><path d="m29.61 36.03-2.59-1.5.5-.87a3 3 0 0 0 -5.2-3l-1 1.73-10 17.32a1.213 1.213 0 0 0 -.11.3l-1.27 6.2a1.008 1.008 0 0 0 .48 1.07.983.983 0 0 0 .5.13 1.023 1.023 0 0 0 .66-.25l4.73-4.2a1.033 1.033 0 0 0 .21-.25l9.5-16.45 1.73 1-3.5 6.06 1.73 1 4-6.93a.988.988 0 0 0 -.37-1.36zm-17.11 17.64.39-1.9 1.06.62zm2.78-2.82-1.73-1 9-15.59 1.73 1zm10.5-18.19-.5.87-1.73-1 .5-.87a1.01 1.01 0 0 1 1.37-.37 1 1 0 0 1 .36 1.37z" fill="url(#New_Gradient_Swatch_1-6)"/><g fill="url(#New_Gradient_Swatch_1-4)"><path d="m28 8h8v2h-8z"/><path d="m28 12h8v2h-8z"/><path d="m28 16h8v2h-8z"/></g></g></svg>