<svg height="512" viewBox="0 0 64 64" width="512" xmlns="http://www.w3.org/2000/svg"><g id="Layer_17" data-name="Layer 17"><path d="m2 2h60v60h-60z" fill="#c7e2fb"/><path d="m2 53.79a45.15 45.15 0 0 0 14 2.21c23.75 0 43-18.13 43-40.5a38.22 38.22 0 0 0 -2.46-13.5h-54.54z" fill="#ebf7fe"/><path d="m6 28h52v30h-52z" fill="#fff"/><path d="m6 28h52v6h-52z" fill="#f7d881"/><path d="m2 2h60v20h-60z" fill="#f7d881"/><g fill="#a0a8b2"><path d="m8 7h2v10h-2z"/><path d="m37 7h2v10h-2z"/><path d="m17 12.51-3.15-5a1 1 0 0 0 -1.13-.51 1 1 0 0 0 -.72 1v9h2v-5.51l3.15 5a1 1 0 0 0 .85.51 1 1 0 0 0 .28 0 1 1 0 0 0 .72-1v-9h-2z"/><path d="m25 12.7-1 1.5-1-1.5v-5.7h-2v6a1 1 0 0 0 .17.55l2 3a1 1 0 0 0 1.66 0l2-3a1 1 0 0 0 .17-.55v-6h-2z"/><path d="m32 7a3 3 0 0 0 -3 3v4a3 3 0 0 0 6 0v-4a3 3 0 0 0 -3-3zm1 7a1 1 0 0 1 -2 0v-4a1 1 0 0 1 2 0z"/><path d="m44 9h1a1 1 0 0 1 1 1h2a3 3 0 0 0 -3-3h-1a3 3 0 0 0 -3 3v4a3 3 0 0 0 3 3h1a3 3 0 0 0 3-3h-2a1 1 0 0 1 -1 1h-1a1 1 0 0 1 -1-1v-4a1 1 0 0 1 1-1z"/><path d="m56 9v-2h-5a1 1 0 0 0 -1 1v8a1 1 0 0 0 1 1h5v-2h-4v-2h4v-2h-4v-2z"/></g><path d="m31 34h2v24h-2z" fill="#f7d881"/><path d="m45 45a2 2 0 1 1 2-2h2a4 4 0 0 0 -3-3.86v-2.14h-2v2.14a4 4 0 0 0 1 7.86 2 2 0 1 1 -2 2h-2a4 4 0 0 0 3 3.86v2.14h2v-2.14a4 4 0 0 0 -1-7.86z" fill="#a0a8b2"/><path d="m9 39h20v2h-20z" fill="#a0a8b2"/><path d="m9 45h20v2h-20z" fill="#a0a8b2"/><path d="m9 51h20v2h-20z" fill="#a0a8b2"/></g></svg>