<svg id="_x31_-outline-expand" enable-background="new 0 0 64 64" height="512" viewBox="0 0 64 64" width="512" xmlns="http://www.w3.org/2000/svg"><path d="m44.6 43.8c.252-.188.4-.485.4-.8v-.197c1.699-1.601 3.067-3.48 4.068-5.538.635 6.024 5.743 10.735 11.932 10.735.552 0 1-.448 1-1v-24c0-6.617-5.383-12-12-12h-1.875c-3.356-5.392-9.32-9-16.125-9-10.139 0-18.424 7.989-18.949 18h-1.051c-2.757 0-5 2.243-5 5s2.243 5 5 5h1.053c.26 4.851 2.382 9.443 5.947 12.803v.197c0 .315.148.611.4.8 1.136.852 2.347 1.558 3.6 2.149v1.806c0 1.41-1.001 2.645-2.382 2.936l-9.635 2.029c-4.164.876-7.586 3.928-8.932 7.965-.034.101-.051.208-.051.315v1h2v-.833c1.156-3.292 3.976-5.771 7.395-6.491l1.675-.353c4.295 4.187 11.313 6.677 18.93 6.677s14.635-2.49 18.93-6.677l1.675.353c3.419.72 6.239 3.199 7.395 6.491v.833h2v-1c0-.107-.017-.214-.051-.316-1.346-4.037-4.768-7.089-8.932-7.965l-9.635-2.029c-1.381-.291-2.382-1.525-2.382-2.936v-1.806c1.253-.591 2.464-1.296 3.6-2.148zm-24.208-13.879-5.392-6.291v-.673c5.699-.348 10.457-3.624 12.238-8.085 3.031 4.588 11.348 7.866 21.523 8.113l-5.197 6.929-11.4-1.9c-.109-.019-.22-.019-.329 0zm31.608-7.921c1.654 0 3 1.346 3 3s-1.346 3-3 3h-1v-6zm-7 17.891v-8.558l4-5.333v3c0 3.997-1.447 7.846-4 10.891zm5-26.891c5.514 0 10 4.486 10 10v22.95c-5.046-.503-9-4.774-9-9.95v-6h1c2.757 0 5-2.243 5-5s-2.243-5-5-5h-1.051c-.131-2.491-.737-4.852-1.74-7zm-18-9c9.37 0 16.993 7.62 16.999 16.988-11.482-.247-20.999-4.72-20.999-9.988h-2c0 5.232-4.849 9.531-10.998 9.958.023-9.355 7.638-16.958 16.998-16.958zm-23 21c0-1.654 1.346-3 3-3h1v6h-1c-1.654 0-3-1.346-3-3zm6 4v-2.297l4 4.667v8.521c-2.553-3.045-4-6.894-4-10.891zm6 11.22 3.804.761.393-1.961-4.197-.84v-2.36l4.196-.839-.393-1.961-3.803.76v-1.933l11-1.833 11 1.833v1.933l-3.804-.761-.393 1.961 4.197.84v2.361l-4.196.839.393 1.961 3.803-.761v2.272c-6.547 4.646-15.453 4.646-22 0zm21.97 12.427 5.538 1.166c-3.981 3.271-9.991 5.187-16.508 5.187s-12.527-1.916-16.508-5.187l5.538-1.166c2.3-.484 3.97-2.542 3.97-4.893v-.982c2.26.792 4.628 1.201 7 1.201s4.74-.409 7-1.201v.982c0 2.351 1.669 4.409 3.97 4.893z"/><circle cx="25" cy="26" r="2"/><circle cx="39" cy="26" r="2"/></svg>