<svg id="Capa_1" enable-background="new 0 0 512.001 512.001" height="512" viewBox="0 0 512.001 512.001" width="512" xmlns="http://www.w3.org/2000/svg"><g><g><g><path d="m245.111 266.891c-57.138-57.138-149.777-57.138-206.915 0s-27.172 119.811 29.966 176.949 119.811 87.104 176.949 29.966 57.138-149.777 0-206.915zm-78.769 195.981c-19.98-4.997-43.497-20.917-69.896-47.316s-42.319-49.916-47.316-69.896c-3.278-13.107-3.78-29.354 17.35-50.485 41.451-41.451 108.896-41.451 150.347 0s41.451 108.896 0 150.347c-21.131 21.13-37.378 20.628-50.485 17.35z" fill="#c4e2fe"/></g></g><g><path d="m68.161 415.556c7.81-7.81 20.474-7.81 28.284 0-26.399-26.399-42.319-49.916-47.316-69.896-3.278-13.107-3.78-29.354 17.35-50.485 41.451-41.451 108.896-41.451 150.347 0l28.284-28.284c-57.138-57.138-149.777-57.138-206.915 0s-27.172 119.811 29.966 176.949c-7.81-7.81-7.81-20.474 0-28.284z" fill="#b0d8fd"/></g><g><path d="m318.689 334.551-141.421-141.422c-39.052 39.052-39.052 102.369 0 141.421 39.052 39.053 102.369 39.053 141.421.001z" fill="#9ccefd"/></g><g><path d="m177.268 284.346c13.864-13.864 36.341-13.864 50.205 0l20.524-20.488-70.729-70.729c-39.052 39.052-39.052 102.369 0 141.421-13.864-13.863-13.864-36.34 0-50.204z" fill="#72bafd"/></g><g><path d="m467.889 220.706c48.525-48.525 48.814-127.02.867-175.901-48.384-49.328-128.552-49.803-177.492-1.027-23.402 23.324-35.62 53.601-36.67 84.193-.863 25.149-11.617 48.947-29.411 66.741l-29.53 29.53 91.924 91.924 29.6-29.6c17.76-17.76 41.515-28.488 66.617-29.339 30.544-1.036 60.778-13.204 84.095-36.521z" fill="#fff2b4"/></g><g><path d="m361.823 220.706c-48.816-48.816-48.816-127.961 0-176.777 15.247-15.247 33.453-25.731 52.769-31.454-42.343-12.248-90.053-1.862-123.328 31.303-23.402 23.324-35.62 53.601-36.67 84.193-.863 25.149-11.617 48.947-29.411 66.741l-29.53 29.53 91.924 91.924 29.6-29.6c17.76-17.76 41.515-28.487 66.617-29.339 10.475-.355 20.914-2.02 31.05-4.995-19.41-5.706-37.708-16.213-53.021-31.526z" fill="#ffdf8e"/></g><g><path d="m227.473 284.346c-83.612-83.612-87.062-175.88-87.167-179.767-.301-11.042 8.406-20.237 19.448-20.537 11.018-.301 20.199 8.369 20.535 19.379.018.467.881 20.658 10.566 49.35 8.923 26.436 27.427 65.815 64.903 103.291s76.855 55.979 103.291 64.903c28.886 9.75 49.156 10.56 49.357 10.566 11.042.302 19.711 9.496 19.41 20.536-.301 11.042-9.534 19.748-20.575 19.446-3.888-.105-96.156-3.555-179.768-87.167z" fill="#c4e2fe"/></g><g><path d="m227.477 284.35c-7.81-7.811-7.809-20.473.001-28.283 7.811-7.811 20.474-7.81 28.284 0-.002-.002-.003-.003-.005-.005-37.476-37.476-55.979-76.855-64.903-103.291-9.685-28.692-10.548-48.883-10.566-49.35-.336-11.01-9.517-19.68-20.535-19.379-11.042.3-19.749 9.496-19.448 20.537.106 3.887 3.555 96.155 87.167 179.767.002.001.004.003.005.004z" fill="#b0d8fd"/></g><g><g><g><ellipse cx="330.307" cy="68.877" fill="#fda0c1" rx="23.403" ry="29.387" transform="matrix(.707 -.707 .707 .707 48.04 253.734)"/></g><g><ellipse cx="442.941" cy="181.512" fill="#fda0c1" rx="23.403" ry="29.387" transform="matrix(.707 -.707 .707 .707 1.387 366.374)"/></g><g><path d="m416.092 129.234c10.354-10.354 3.826-18.828-5.427-28.081s-17.727-15.781-28.081-5.427-11.246 26.248-1.994 35.501c9.254 9.253 25.149 8.361 35.502-1.993z" fill="#6e6e6e"/></g></g><g><path d="m353.537 60.095c-1.919 0-3.839-.732-5.303-2.197-2.929-2.929-2.929-7.678 0-10.606l8.485-8.485c2.929-2.929 7.678-2.929 10.606 0 2.929 2.929 2.929 7.678 0 10.606l-8.485 8.485c-1.464 1.464-3.384 2.197-5.303 2.197z"/></g><g><path d="m396.517 145.123c-.001 0-.001 0-.002 0-8.148 0-15.687-3.052-21.227-8.592-12.162-12.163-11.268-32.847 1.994-46.108 4.96-4.96 10.316-7.476 15.918-7.476 9.104 0 16.526 6.661 22.769 12.903 6.6 6.6 22.057 22.057 5.427 38.687-6.728 6.728-15.796 10.586-24.879 10.586zm-3.317-47.176c-1.479 0-3.267 1.037-5.312 3.083-7.413 7.413-8.307 18.581-1.994 24.895 2.708 2.708 6.479 4.198 10.621 4.199h.001c5.135 0 10.337-2.257 14.272-6.192 4.177-4.177 5.56-6.487-5.427-17.474-2.761-2.764-8.508-8.511-12.161-8.511z"/></g><g><path d="m459.224 165.782c-1.919 0-3.839-.732-5.303-2.197-2.929-2.929-2.929-7.678 0-10.606l8.485-8.485c2.929-2.929 7.678-2.929 10.606 0 2.929 2.929 2.929 7.678 0 10.606l-8.485 8.485c-1.464 1.464-3.384 2.197-5.303 2.197z"/></g></g><path d="m384.048 264.722c33.662-1.141 65.321-14.889 89.145-38.713 24.865-24.865 38.647-57.924 38.807-93.086.16-35.139-13.296-68.298-37.889-93.371-24.818-25.302-58.155-39.348-93.87-39.55-35.692-.217-69.181 13.458-94.271 38.464-23.909 23.829-37.714 55.525-38.871 89.248-.79 23.022-10.457 44.933-27.219 61.694l-3.09 3.09c-8.852-15.775-14.834-30.289-18.83-42.126-9.285-27.509-10.17-47.051-10.175-47.181-.462-15.106-13.142-27.058-28.236-26.647-7.343.2-14.168 3.248-19.219 8.581-5.051 5.334-7.722 12.315-7.521 19.657.071 2.635 1.629 44.666 27.044 97.509-3.245 4.637-6.108 9.5-8.561 14.551-44.113-2.763-87.075 13.42-118.4 44.745-28.532 28.532-38.573 60.696-29.843 95.598 7.215 28.848 26.779 58.928 59.81 91.958s63.11 52.594 91.958 59.81c8.131 2.034 16.11 3.048 23.933 3.048 25.755-.001 49.78-11.007 71.665-32.892 31.402-31.402 47.577-74.456 44.729-118.671 4.991-2.435 9.802-5.262 14.388-8.471 52.841 25.413 94.869 26.971 97.504 27.042.256.007.508.011.762.011 14.838-.001 27.109-11.847 27.515-26.75.413-15.157-11.566-27.824-26.627-28.235-.194-.008-19.711-.886-47.238-10.178-11.163-3.768-25.842-9.718-42.114-18.842l3.147-3.147c16.726-16.726 38.591-26.366 61.567-27.146zm-144.241 203.781c-24.893 24.893-51.504 33.363-81.352 25.898-25.773-6.446-54.369-25.242-84.991-55.864s-49.417-59.218-55.864-84.991c-7.465-29.849 1.006-56.459 25.898-81.352 27.106-27.105 63.866-41.641 101.945-40.598-2.539 8.091-4.139 16.479-4.713 25-29.771.254-58.467 12.189-79.555 33.277-23.916 23.916-22.889 43.349-19.323 57.607 5.332 21.318 21.916 46.006 49.289 73.38 8.808 8.808 17.435 16.591 25.642 23.132 1.381 1.101 3.031 1.636 4.67 1.636 2.205 0 4.389-.968 5.87-2.826 2.582-3.239 2.049-7.958-1.19-10.54-7.769-6.192-15.974-13.598-24.385-22.009-25.425-25.425-40.681-47.77-45.344-66.413-2.908-11.626-3.058-24.926 15.377-43.361 18.282-18.282 43.166-28.635 68.981-28.882 1.853 25.748 12.922 49.979 31.201 68.258 18.291 18.291 42.558 29.376 68.329 31.212.038.003.076.003.114.006-.202 25.876-10.559 50.821-28.884 69.146-18.436 18.435-31.735 18.285-43.362 15.377-5.668-1.417-11.794-3.875-18.209-7.305-3.654-1.953-8.197-.575-10.15 3.078s-.575 8.197 3.078 10.15c7.5 4.009 14.78 6.912 21.642 8.628 4.298 1.075 9.065 1.919 14.285 1.919 12.096 0 26.617-4.536 43.323-21.242 21.14-21.14 33.077-49.919 33.279-79.76 8.516-.59 16.904-2.186 24.991-4.738 1.113 38.164-13.42 75.005-40.592 102.177zm-57.236-139.255c-29.65-29.65-35.229-75.911-14.76-111.54 12.84 23.251 30.383 47.965 54.359 71.941s48.689 41.518 71.94 54.358c-35.618 20.449-81.933 14.847-111.539-14.759zm103.103-56.666c-3.26-2.555-7.974-1.983-10.529 1.277s-1.983 7.975 1.277 10.529c30.761 24.104 60.607 37.059 80.228 43.681 30.145 10.176 51.309 10.95 51.55 10.958 6.869.188 12.305 5.946 12.118 12.835-.188 6.89-5.962 12.343-12.875 12.154-3.765-.103-93.133-3.439-174.667-84.974s-84.871-170.903-84.974-174.668c-.091-3.338 1.123-6.511 3.419-8.936 2.295-2.424 5.398-3.809 8.736-3.9 6.857-.183 12.625 5.246 12.836 12.172.034.876.946 21.807 10.955 51.458 9.179 27.195 28.204 67.694 66.706 106.196.71.71 1.421 1.414 2.132 2.111 2.959 2.898 7.708 2.849 10.606-.11s2.85-7.707-.109-10.606c-.675-.661-1.349-1.329-2.023-2.002-15.032-15.032-26.917-30.37-36.309-45.009l5.735-5.735c19.458-19.458 30.682-44.952 31.604-71.786 1.026-29.902 13.268-58.007 34.469-79.138 22.235-22.162 51.965-34.28 83.597-34.088 31.686.179 61.25 12.628 83.247 35.054 44.923 45.799 44.557 119.973-.816 165.346-21.125 21.125-49.198 33.316-79.046 34.328-26.79.908-52.241 12.106-71.666 31.531l-5.797 5.797c-6.674-4.273-13.512-9.074-20.404-14.475z"/></g></svg>