<svg height="512" viewBox="0 0 512 512" width="512" xmlns="http://www.w3.org/2000/svg" xmlns:xlink="http://www.w3.org/1999/xlink"><linearGradient id="linear-gradient" gradientUnits="userSpaceOnUse" x1="287.423" x2="287.423" y1="10.725" y2="518.017"><stop offset="0" stop-color="#ff91d2"/><stop offset=".2621" stop-color="#f68bd9"/><stop offset=".6881" stop-color="#de79ed"/><stop offset=".9989" stop-color="#c86aff"/></linearGradient><linearGradient id="linear-gradient-2" x1="269.186" x2="269.186" xlink:href="#linear-gradient" y1="10.725" y2="518.017"/><linearGradient id="linear-gradient-3" x1="224.577" x2="224.577" xlink:href="#linear-gradient" y1="10.725" y2="518.017"/><linearGradient id="linear-gradient-4" x1="354.275" x2="354.275" xlink:href="#linear-gradient" y1="10.725" y2="518.017"/><linearGradient id="linear-gradient-5" x1="256" x2="256" xlink:href="#linear-gradient" y1="10.725" y2="518.017"/><linearGradient id="linear-gradient-7" x1="360" x2="360" xlink:href="#linear-gradient" y1="10.725" y2="518.017"/><linearGradient id="linear-gradient-8" x1="262.294" x2="262.294" xlink:href="#linear-gradient" y1="10.725" y2="518.017"/><linearGradient id="linear-gradient-9" x1="157.694" x2="157.694" xlink:href="#linear-gradient" y1="10.725" y2="518.017"/><g id="Solid_G_Revise" data-name="Solid G Revise"><g><path d="m264.6016 336h-.6016v60.686l46.8467-46.8466-11.563-34.689-16.4605 14.1089a28.0182 28.0182 0 0 1 -18.2216 6.7407z" fill="url(#linear-gradient)"/><path d="m324.344 139.1445-35.3909-66.3584a8 8 0 0 1 4.27-11.2632s41.8252-15.5312 42.1123-15.603a21.9668 21.9668 0 0 0 15.3814-13.9199h-98.7168a11.9774 11.9774 0 0 0 -10.5879 6.3525l-53.7561 100.7921 68.344 20.5033z" fill="url(#linear-gradient-2)"/><path d="m229.2178 329.3359-16.5435-14.06-11.521 34.5633 46.8467 46.8473v-60.6865h-.6494a28.0285 28.0285 0 0 1 -18.1328-6.6641z" fill="url(#linear-gradient-3)"/><path d="m361.3154 280.1089 33.084 5.5141-31.75-68.7935-26.6494 6.1497v47.8221a27.9669 27.9669 0 0 1 -9.7783 21.26l-12.0708 10.3462 12.477 43.67 53.4846 22.0232-27.6467-77.41a8.0007 8.0007 0 0 1 8.85-10.582z" fill="url(#linear-gradient-4)"/><path d="m320 270.8013v-44.13l-22.2012 5.1233a15.7152 15.7152 0 0 1 -4.5332-.2763l-86.6748-31.5183h-14.5908v71.1587a11.9769 11.9769 0 0 0 4.23 9.1435l43.35 36.8418a12.0116 12.0116 0 0 0 7.7706 2.856h17.251a12.0073 12.0073 0 0 0 7.8095-2.8892l43.3989-37.1987a11.9845 11.9845 0 0 0 4.19-9.1108zm-39.1553 20.7763-5.789-11.5776h-38.1114l-5.789 11.5776-14.3106-7.1552 8-16a8 8 0 0 1 7.1553-4.4224h48a8 8 0 0 1 7.1553 4.4224l8 16z" fill="url(#linear-gradient-5)"/><path d="m434.376 407.748-112.49-46.32-60.2285 60.2285s-4.6253 2.3435-5.6555 2.3435a8 8 0 0 1 -5.6592-2.3433l-60.2285-60.2285-112.49 46.32a21.9274 21.9274 0 0 0 -13.6243 20.3426v41.9092a10 10 0 0 0 10 10h44.2415l-6.0862-30.4312 15.6894-3.1376 6.7139 33.5688h197.7363a32 32 0 1 1 55.41 0h50.2951a10 10 0 0 0 10-10v-41.9092a21.9274 21.9274 0 0 0 -13.624-20.3428z" fill="url(#linear-gradient-5)"/><circle cx="360" cy="464" fill="url(#linear-gradient-7)" r="16"/><path d="m210.7344 184.4814 85.7744 31.191 86.4531-19.9507-48.9-42.788s-77.2875 23.0663-78.0619 23.0663-78.1123-23.0815-78.1123-23.0815l-36.2617 31.0815s68.2314.1631 69.1084.4814z" fill="url(#linear-gradient-8)"/><path d="m158.1367 282.8682a7.9993 7.9993 0 0 1 1.3975 7.8227l-27.6467 77.41 53.4846-22.0232 12.415-43.4538-11.9189-10.13a27.9513 27.9513 0 0 1 -9.8682-21.3352v-71.1587h-18.8813l-39.5181 85.623 33.084-5.5141a8 8 0 0 1 7.4521 2.7593z" fill="url(#linear-gradient-9)"/></g></g></svg>